<?xml version="1.0" standalone="no"?>
<svg xmlns:xlink="http://www.w3.org/1999/xlink" id="wave" style="transform:rotate(0deg); transition: 0.3s" viewBox="0 0 1440 490" version="1.1" xmlns="http://www.w3.org/2000/svg"><defs><linearGradient id="sw-gradient-0" x1="0" x2="0" y1="1" y2="0"><stop stop-color="rgba(243, 106, 62, 1)" offset="0%"/><stop stop-color="rgba(227.687, 212.375, 178.528, 1)" offset="100%"/></linearGradient></defs><path style="transform:translate(0, 0px); opacity:1" fill="url(#sw-gradient-0)" d="M0,0L60,32.7C120,65,240,131,360,130.7C480,131,600,65,720,73.5C840,82,960,163,1080,204.2C1200,245,1320,245,1440,261.3C1560,278,1680,310,1800,326.7C1920,343,2040,343,2160,351.2C2280,359,2400,376,2520,359.3C2640,343,2760,294,2880,294C3000,294,3120,343,3240,318.5C3360,294,3480,196,3600,171.5C3720,147,3840,196,3960,179.7C4080,163,4200,82,4320,49C4440,16,4560,33,4680,89.8C4800,147,4920,245,5040,294C5160,343,5280,343,5400,334.8C5520,327,5640,310,5760,261.3C5880,212,6000,131,6120,106.2C6240,82,6360,114,6480,114.3C6600,114,6720,82,6840,130.7C6960,180,7080,310,7200,326.7C7320,343,7440,245,7560,204.2C7680,163,7800,180,7920,155.2C8040,131,8160,65,8280,32.7C8400,0,8520,0,8580,0L8640,0L8640,490L8580,490C8520,490,8400,490,8280,490C8160,490,8040,490,7920,490C7800,490,7680,490,7560,490C7440,490,7320,490,7200,490C7080,490,6960,490,6840,490C6720,490,6600,490,6480,490C6360,490,6240,490,6120,490C6000,490,5880,490,5760,490C5640,490,5520,490,5400,490C5280,490,5160,490,5040,490C4920,490,4800,490,4680,490C4560,490,4440,490,4320,490C4200,490,4080,490,3960,490C3840,490,3720,490,3600,490C3480,490,3360,490,3240,490C3120,490,3000,490,2880,490C2760,490,2640,490,2520,490C2400,490,2280,490,2160,490C2040,490,1920,490,1800,490C1680,490,1560,490,1440,490C1320,490,1200,490,1080,490C960,490,840,490,720,490C600,490,480,490,360,490C240,490,120,490,60,490L0,490Z"/><defs><linearGradient id="sw-gradient-1" x1="0" x2="0" y1="1" y2="0"><stop stop-color="rgba(218.58, 179.076, 166.389, 1)" offset="0%"/><stop stop-color="rgba(255, 179, 11, 1)" offset="100%"/></linearGradient></defs><path style="transform:translate(0, 50px); opacity:0.9" fill="url(#sw-gradient-1)" d="M0,0L60,73.5C120,147,240,294,360,367.5C480,441,600,441,720,416.5C840,392,960,343,1080,334.8C1200,327,1320,359,1440,359.3C1560,359,1680,327,1800,310.3C1920,294,2040,294,2160,245C2280,196,2400,98,2520,89.8C2640,82,2760,163,2880,163.3C3000,163,3120,82,3240,98C3360,114,3480,229,3600,253.2C3720,278,3840,212,3960,187.8C4080,163,4200,180,4320,179.7C4440,180,4560,163,4680,130.7C4800,98,4920,49,5040,89.8C5160,131,5280,261,5400,326.7C5520,392,5640,392,5760,367.5C5880,343,6000,294,6120,236.8C6240,180,6360,114,6480,106.2C6600,98,6720,147,6840,187.8C6960,229,7080,261,7200,302.2C7320,343,7440,392,7560,408.3C7680,425,7800,408,7920,392C8040,376,8160,359,8280,310.3C8400,261,8520,180,8580,138.8L8640,98L8640,490L8580,490C8520,490,8400,490,8280,490C8160,490,8040,490,7920,490C7800,490,7680,490,7560,490C7440,490,7320,490,7200,490C7080,490,6960,490,6840,490C6720,490,6600,490,6480,490C6360,490,6240,490,6120,490C6000,490,5880,490,5760,490C5640,490,5520,490,5400,490C5280,490,5160,490,5040,490C4920,490,4800,490,4680,490C4560,490,4440,490,4320,490C4200,490,4080,490,3960,490C3840,490,3720,490,3600,490C3480,490,3360,490,3240,490C3120,490,3000,490,2880,490C2760,490,2640,490,2520,490C2400,490,2280,490,2160,490C2040,490,1920,490,1800,490C1680,490,1560,490,1440,490C1320,490,1200,490,1080,490C960,490,840,490,720,490C600,490,480,490,360,490C240,490,120,490,60,490L0,490Z"/></svg>